<?xml version="1.0" encoding="UTF-8" standalone="no"?>
<!DOCTYPE svg PUBLIC "-//W3C//DTD SVG 1.1//EN" "http://www.w3.org/Graphics/SVG/1.1/DTD/svg11.dtd">
<svg width="100%" height="100%" viewBox="0 0 128 128" version="1.1" xmlns="http://www.w3.org/2000/svg" xmlns:xlink="http://www.w3.org/1999/xlink" xml:space="preserve" xmlns:serif="http://www.serif.com/" style="fill-rule:evenodd;clip-rule:evenodd;stroke-linejoin:round;stroke-miterlimit:2;">
    <g transform="matrix(1.26289,0,0,1.26289,-15.3546,-20.1467)">
        <path d="M37.501,110.519C45.205,114.966 53.943,117.308 62.838,117.308C90.824,117.308 113.511,94.62 113.511,66.634L62.838,66.634L37.501,110.519Z" style="fill:rgb(13,121,242);"/>
    </g>
    <g transform="matrix(-0.631446,1.0937,-1.0937,-0.631446,176.556,37.3506)">
        <path d="M37.501,110.519C45.205,114.966 53.943,117.308 62.838,117.308C90.824,117.308 113.511,94.62 113.511,66.634L62.838,66.634L37.501,110.519Z" style="fill:rgb(13,242,40);"/>
    </g>
    <g transform="matrix(-0.631446,-1.0937,1.0937,-0.631446,30.8035,174.807)">
        <path d="M37.501,110.519C45.205,114.966 53.943,117.308 62.838,117.308C90.824,117.308 113.511,94.62 113.511,66.634L62.838,66.634L37.501,110.519Z" style="fill:rgb(242,175,13);"/>
    </g>
</svg>
